# xmcd CD database file
#
# Track frame offsets:
#	182
#	16087
#	29812
#	46767
#	62735
#	76605
#	89057
#	104730
#	119735
#	133245
#	148187
#	160760
#	176360
#	191060
#
# Disc length: 2727 seconds
#
# Revision: 2
# Processed by: cddbd v1.4b41PL1 Copyright (c) Steve Scherf et al.
# Submitted via: Feurio! 1.50.2ß - http://www.feurio.com
#
DISCID=c70aa50e
DTITLE=Jiri Korn - Paste songs
DYEAR=1900
DGENRE=
TTITLE0=Ten host je vzdy stejny
TTITLE1=Ten , kdo ma te rad
TTITLE2=Jen par veceru
TTITLE3=PAtron milencu
TTITLE4=K neuvereni
TTITLE5=Hlas fleten
TTITLE6=Jisty
TTITLE7=V tvych ocich jsem grof
TTITLE8=Ten tam nade mnou, ten vi
TTITLE9=Nic mi nechybi
TTITLE10=Mozna
TTITLE11=Podzimni listi
TTITLE12=Tvuj smich me vzbouzi
TTITLE13=Ten hlas me vzal
EXTD=
EXTT0=
EXTT1=
EXTT2=
EXTT3=
EXTT4=
EXTT5=
EXTT6=
EXTT7=
EXTT8=
EXTT9=
EXTT10=
EXTT11=
EXTT12=
EXTT13=
PLAYORDER=
